<svg width="202" height="43" viewBox="0 0 202 43" fill="none" xmlns="http://www.w3.org/2000/svg">
<g opacity="0.8" clip-path="url(#clip0_0_79)">
<path d="M2.10057 8.72495C0.70021 9.20848 0 9.8485 0 10.6472V28.1067H9.84653V19.8749H23.6349V16.3829H9.84653V12.3925C9.84653 11.8938 10.3717 11.6444 11.4209 11.6444H23.6349V8.15242H5.90685C4.52342 8.15242 3.25458 8.34527 2.10057 8.72495Z" fill="white"/>
<path d="M40.9712 22.12L45.3337 14.2121L49.6939 22.12H40.9712ZM51.6366 8.90109C50.4299 8.4034 49.1499 8.15242 47.8023 8.15242C46.4186 8.15242 45.154 8.40995 44.0076 8.92675C42.8604 9.44275 42.0587 10.1066 41.6044 10.9211L32.1251 28.1067H37.6398L39.015 25.6126H51.6411L53.0052 28.1067H63.6401L54.105 10.8218C53.6668 10.0407 52.8427 9.39852 51.6366 8.90109Z" fill="white"/>
<path d="M75.9055 11.0836C72.8254 13.0363 71.2841 15.3884 71.2841 18.128C71.2841 20.8747 72.8254 23.2235 75.9055 25.1748C78.9874 27.1304 82.6884 28.1067 87.0161 28.1067H98.8314V24.6162H87.0161C84.9654 24.6162 83.5836 23.7927 82.8657 22.1472C82.4793 21.2491 82.2886 19.909 82.2886 18.128C82.2886 16.3507 82.4793 15.0136 82.8657 14.114C83.5836 12.4681 84.9654 11.6444 87.0161 11.6444H98.8314V8.15242H87.0161C82.6884 8.15242 78.9874 9.12722 75.9055 11.0836Z" fill="white"/>
<path d="M113.446 8.72495C112.042 9.20848 111.344 9.8485 111.344 10.6472V25.6126C111.344 26.4119 112.042 27.0526 113.446 27.5336C114.602 27.9161 115.868 28.1067 117.249 28.1067H134.978V24.6162H122.765C121.712 24.6162 121.187 24.3649 121.187 23.8638V19.8749H134.978V16.3829H121.187V12.3925C121.187 11.8938 121.712 11.6444 122.765 11.6444H134.978V8.15242H117.249C115.868 8.15242 114.602 8.34527 113.446 8.72495Z" fill="white"/>
<path d="M171.484 8.17114V11.6642H180.188C181.218 11.6642 181.736 11.9124 181.736 12.4129V28.127H191.676V12.4129C191.676 11.9124 192.191 11.6642 193.222 11.6642H201.927V8.17114H171.484ZM151.757 27.9908L151.766 27.9509H162.358V21.1336L151.739 17.0657L151.757 27.9908Z" fill="white"/>
<path d="M111.68 37.0518H111.591L111.55 37.1213L110.407 39.0961L109.253 37.1213L109.215 37.0518H109.128H107.476H107.221L107.355 37.25L109.527 40.5754V42.7819V42.9143H109.671H111.127H111.268V42.7819V40.5587L113.46 37.2531L113.594 37.0518H113.341H111.68Z" fill="white"/>
<path d="M122.303 41.7776C122.105 41.7776 121.936 41.7713 121.802 41.7578C121.671 41.7449 121.531 41.7185 121.388 41.6784C121.262 41.6488 121.169 41.5961 121.109 41.5234C121.048 41.4507 121.016 41.3619 121.016 41.2462V38.7854C121.016 38.5608 121.107 38.4156 121.294 38.3329C121.511 38.2376 121.849 38.1874 122.294 38.1874C122.738 38.1874 123.074 38.2376 123.29 38.336C123.482 38.4223 123.573 38.5677 123.573 38.7854V41.2462C123.573 41.3619 123.541 41.4545 123.484 41.5234C123.423 41.5961 123.336 41.6488 123.214 41.6784C123.075 41.7185 122.94 41.7449 122.808 41.7578C122.672 41.7713 122.504 41.7776 122.303 41.7776ZM124.535 37.4251C124.327 37.3029 124.073 37.2037 123.782 37.1271C123.493 37.0545 123.232 37.0087 123.003 36.9919C122.776 36.972 122.537 36.9662 122.287 36.9662C122.041 36.9662 121.805 36.972 121.584 36.9919C121.357 37.0087 121.097 37.0545 120.808 37.1271C120.516 37.2037 120.265 37.3029 120.057 37.4251C119.842 37.5501 119.657 37.7348 119.507 37.9697C119.352 38.2072 119.275 38.4852 119.275 38.7955V41.2462C119.275 41.6128 119.383 41.9296 119.592 42.1812C119.797 42.4316 120.074 42.6131 120.422 42.7259C120.75 42.8312 121.064 42.9039 121.355 42.944C121.644 42.9801 121.958 43 122.287 43C122.634 43 122.967 42.9762 123.279 42.9304C123.594 42.8809 123.912 42.7986 124.225 42.6858C124.553 42.5638 124.819 42.379 125.016 42.1349C125.214 41.8903 125.314 41.5898 125.314 41.2462V38.7955C125.314 38.4814 125.238 38.2014 125.089 37.9666C124.943 37.7321 124.757 37.5501 124.535 37.4251Z" fill="white"/>
<path d="M135.611 37.0518H135.469V41.2462C135.469 41.4507 135.406 41.5859 135.277 41.6558C135.174 41.7118 134.947 41.7776 134.453 41.7776C133.953 41.7776 133.718 41.7118 133.609 41.6529C133.476 41.5831 133.41 41.4507 133.41 41.2462V37.1839V37.0518H133.268H131.811H131.667V37.1839V41.2462C131.667 42.4117 132.6 43 134.436 43C136.275 43 137.21 42.4117 137.21 41.2462V37.1839V37.0518H137.069H135.611Z" fill="white"/>
<path d="M145.438 38.2737H146.548C146.914 38.2737 147.081 38.3262 147.16 38.3694C147.188 38.3889 147.291 38.4449 147.291 38.6836V39.0832C147.291 39.2145 147.268 39.3896 147.163 39.4623C147.108 39.4984 146.955 39.5615 146.548 39.5615H145.438V38.2737ZM149.354 42.7064L147.726 40.5724C148.047 40.5097 148.321 40.4003 148.552 40.2386C148.853 40.0307 149.005 39.7302 149.005 39.3472V38.3663C149.005 37.8802 148.794 37.537 148.376 37.3324C147.987 37.1438 147.394 37.0518 146.565 37.0518H143.839H143.696V37.1839V42.7819V42.9143H143.839H145.296H145.438V42.7819V40.7142H145.891L147.437 42.8546L147.48 42.9143H147.555H149.236H149.51L149.354 42.7064Z" fill="white"/>
<path d="M3.10354 41.7776C1.74242 41.7776 1.74242 41.3053 1.74242 41.1501V38.7687C1.74242 38.6373 1.77105 38.5284 1.82652 38.4518C1.88038 38.3759 1.96332 38.32 2.07952 38.284C2.21424 38.2407 2.34353 38.2142 2.46786 38.2042C2.59741 38.1909 2.76725 38.1874 2.97151 38.1874C3.4867 38.1874 4.11717 38.2671 4.84458 38.4253L5.02036 38.4616V38.2967V37.2862V37.1734L4.90043 37.1575C4.07352 37.0284 3.41811 36.9662 2.95392 36.9662C0.992903 36.9662 0 37.577 0 38.7854V41.2462C0 41.5466 0.0722801 41.8106 0.216346 42.0318C0.357333 42.2539 0.534818 42.4284 0.742369 42.5508C0.943983 42.673 1.19001 42.7689 1.47474 42.8379C1.75182 42.9039 2.00752 42.9467 2.23409 42.9705C2.46132 42.9897 2.70261 43 2.95392 43C3.58091 43 4.251 42.9369 4.94221 42.8082L5.05784 42.7848V42.6795V41.6585V41.4937L4.88224 41.533C4.1302 41.6951 3.53217 41.7776 3.10354 41.7776Z" fill="#FF5500"/>
<path d="M15.3637 37.0518H15.221V39.2939H12.9298V37.1839V37.0518H12.7863H11.3298H11.1865V37.1839V42.7819V42.9143H11.3298H12.7863H12.9298V42.7819V40.5156H15.221V42.7819V42.9143H15.3637H16.8208H16.9634V42.7819V37.1839V37.0518H16.8208H15.3637Z" fill="#FF5500"/>
<path d="M26.7415 40.3443H25.3706L26.0556 38.4588L26.7415 40.3443ZM27.1238 37.1372L27.09 37.0518H26.9893H25.216H25.1171L25.0819 37.1372L22.8406 42.7355L22.7689 42.9143H22.9739H24.4125H24.5152L24.548 42.8249L25.0473 41.4377H27.0554L27.5642 42.8249L27.5969 42.9143H27.6996H29.1759H29.3791L29.3085 42.7355L27.1238 37.1372Z" fill="#FF5500"/>
<path d="M36.9283 41.6919V37.0518H35.1855V42.9143H35.328H39.765H39.9071V42.7819V41.8238V41.6919H39.765H36.9283Z" fill="#FF5500"/>
<path d="M47.8261 41.6919V37.0518H46.0834V42.9143H46.2269H50.6623H50.8047V42.7819V41.8238V41.6919H50.6623H47.8261Z" fill="#FF5500"/>
<path d="M58.7233 41.6919V40.5156H61.5808V39.2939H61.4382H58.7233V38.2737H61.7457H61.8889V38.1415V37.1839V37.0518H61.7457H57.124H56.9805V37.1839V42.7819V42.9143H57.124H61.8397H61.9817V42.7819V41.8238V41.6919H61.8397H58.7233Z" fill="#FF5500"/>
<path d="M72.7082 37.0518H72.5656V40.5882L69.8934 37.1078L69.8506 37.0518H69.7766H68.3016H68.1581V37.1839V42.7819V42.9143H68.3016H69.5984H69.7427V42.7819V39.3208L72.4142 42.8577L72.4569 42.9143H72.5317H74.0061H74.1495V42.7819V37.1839V37.0518H74.0061H72.7082Z" fill="#FF5500"/>
<path d="M84.8067 39.8421H84.6648V40.7013H84.6678V41.6784C84.3729 41.7449 84.0912 41.7776 83.8315 41.7776C83.3043 41.7776 82.8965 41.7285 82.6186 41.6224C82.3778 41.5369 82.2639 41.3849 82.2639 41.1501V38.8973C82.2639 38.7229 82.2639 38.1874 83.699 38.1874C84.5862 38.1874 85.4057 38.2671 86.1322 38.4253L86.3081 38.4616V38.2967V37.2764V37.1676L86.189 37.1478C85.4013 37.0251 84.5634 36.9662 83.699 36.9662C83.4095 36.9662 83.1291 36.9791 82.8672 37.0054C82.601 37.0319 82.3185 37.0879 82.031 37.1734C81.7389 37.2597 81.4842 37.3717 81.2747 37.5044C81.0563 37.6428 80.8774 37.8344 80.7347 38.0786C80.5949 38.32 80.5206 38.6038 80.5206 38.9172V41.2462C80.5206 41.5299 80.5845 41.7843 80.7069 41.9991C80.8297 42.2134 80.9945 42.3852 81.1973 42.5107C81.39 42.6337 81.6345 42.7329 81.919 42.8082C82.197 42.884 82.4796 42.9339 82.7561 42.9603C83.0333 42.9872 83.3437 43 83.6807 43C84.0912 43 84.5466 42.9666 85.0342 42.8939C85.5237 42.8249 85.9322 42.7355 86.2508 42.6298L86.3462 42.5972V42.5078V39.9708V39.8389L86.2027 39.8421H84.8067Z" fill="#FF5500"/>
<path d="M97.576 41.6919H94.4605V40.5156H97.3185V40.3841V39.4257V39.2939H97.1766H94.4605V38.2737H97.4825H97.6246V38.1415V37.1839V37.0518H97.4825H92.8609H92.7185V37.1839V42.7819V42.9143H92.8609H97.576H97.7187V42.7819V41.8238V41.6919H97.576Z" fill="#FF5500"/>
<path d="M163.584 39.8389H163.439V40.5851L163.445 40.5882V41.6784C163.148 41.7449 162.868 41.7776 162.61 41.7776C162.083 41.7776 161.675 41.7285 161.395 41.6224C161.157 41.5369 161.043 41.3849 161.043 41.1501V38.8973C161.043 38.7229 161.043 38.1874 162.478 38.1874C163.363 38.1874 164.183 38.2671 164.911 38.4253L165.085 38.4616V38.2967V37.2764V37.1676L164.967 37.1478C164.179 37.0251 163.343 36.9662 162.478 36.9662C162.187 36.9662 161.905 36.9791 161.645 37.0054C161.378 37.0319 161.096 37.0879 160.808 37.1734C160.516 37.2597 160.262 37.3717 160.054 37.5044C159.834 37.6428 159.655 37.8344 159.515 38.0786C159.371 38.32 159.298 38.6012 159.298 38.9172V41.2462C159.298 41.5299 159.361 41.7843 159.485 41.9991C159.603 42.2134 159.774 42.3852 159.973 42.5107C160.169 42.6337 160.412 42.7329 160.698 42.8082C160.975 42.884 161.257 42.9339 161.534 42.9603C161.811 42.9872 162.121 43 162.46 43C162.869 43 163.325 42.9666 163.813 42.8939C164.303 42.8249 164.713 42.7355 165.029 42.6298L165.123 42.5972V42.5078V39.9708V39.8421H164.981L163.584 39.8389Z" fill="white"/>
<path d="M174.771 40.3443H173.4L174.087 38.4616L174.771 40.3443ZM175.152 37.1372L175.12 37.0518H175.02H173.244H173.144L173.112 37.1372L170.869 42.7355L170.798 42.9143H171.004H172.442H172.543L172.576 42.8249L173.076 41.4377H175.086L175.594 42.8249L175.625 42.9143H175.729H177.204H177.408L177.339 42.7355L175.152 37.1372Z" fill="white"/>
<path d="M188.401 37.0518H188.299L188.266 37.1408L186.924 40.7807L185.566 37.1408L185.535 37.0518H185.431H183.358H183.215V37.1839V42.7819V42.9143H183.358H184.694H184.836V42.7819V39.3169L186.174 42.8249L186.206 42.9143H186.309H187.476H187.578L187.612 42.8249L188.894 39.3599V42.7819V42.9143H189.035H190.355H190.495V42.7819V37.1839V37.0518H190.355H188.401Z" fill="white"/>
<path d="M201.857 41.6919H198.741V40.5156H201.599V40.3841V39.4257V39.2939H201.455H198.741V38.2737H201.762H201.907V38.1415V37.1839V37.0518H201.762H197.143H196.998V37.1839V42.7819V42.9143H197.143H201.857H202V42.7819V41.8238V41.6919H201.857Z" fill="white"/>
<path d="M162.544 0.160913C162.544 -0.00627518 162.349 -0.0567951 162.26 0.0729733C159.561 4.00906 158.044 6.25722 156.672 8.2965C151.571 8.29877 144.23 8.30038 140.578 8.29409C140.379 8.29409 140.298 8.54027 140.473 8.60281C147.15 10.9942 156.8 14.5984 162.184 16.6201C162.319 16.6737 162.544 16.549 162.544 16.458V0.160913Z" fill="#FF5500"/>
</g>
<defs>
<clipPath id="clip0_0_79">
<rect width="202" height="43" fill="white"/>
</clipPath>
</defs>
</svg>
